<svg width="82" height="24" viewBox="0 0 82 24" fill="none" xmlns="http://www.w3.org/2000/svg">
<path d="M15.3372 23.979L22.5532 22.418C22.5532 22.418 19.9492 4.805 19.9282 4.688C19.9102 4.572 19.8142 4.496 19.7172 4.496C19.6202 4.496 17.7882 4.36 17.7882 4.36C17.7882 4.36 16.5132 3.086 16.3492 2.949C16.3042 2.912 16.2742 2.892 16.2282 2.875L15.3142 23.979H15.3372V23.979ZM11.7102 11.305C11.7102 11.305 10.9002 10.881 9.93624 10.881C8.48924 10.881 8.43224 11.787 8.43224 12.022C8.43224 13.254 11.6722 13.737 11.6722 16.651C11.6722 18.946 10.2322 20.411 8.26624 20.411C5.91224 20.411 4.72624 18.946 4.72624 18.946L5.37224 16.86C5.37224 16.86 6.61724 17.926 7.65224 17.926C8.32724 17.926 8.62724 17.381 8.62724 16.994C8.62724 15.375 5.97324 15.3 5.97324 12.635C5.93924 10.398 7.54424 8.219 10.8002 8.219C12.0572 8.219 12.6752 8.58 12.6752 8.58L11.7302 11.295L11.7102 11.305V11.305ZM11.1702 0.83C11.3062 0.83 11.4412 0.868 11.5752 0.965C10.5912 1.43 9.51124 2.604 9.06724 4.957C8.41124 5.17 7.77424 5.362 7.17824 5.535C7.69724 3.75 8.95124 0.84 11.1702 0.84V0.83ZM12.4052 3.779V3.914C11.6512 4.146 10.8222 4.398 10.0112 4.65C10.4772 2.873 11.3442 2.005 12.0962 1.679C12.2892 2.18 12.4052 2.855 12.4052 3.779V3.779ZM12.9442 1.545C13.6382 1.619 14.0852 2.412 14.3732 3.3C14.0242 3.414 13.6382 3.531 13.2152 3.666V3.414C13.2152 2.662 13.1192 2.043 12.9442 1.543V1.545V1.545ZM15.9362 2.834C15.9162 2.834 15.8762 2.855 15.8582 2.855C15.8402 2.855 15.5692 2.93 15.1442 3.065C14.7212 1.832 13.9682 0.695 12.6362 0.695H12.5212C12.1352 0.209 11.6692 0 11.2652 0C8.15924 0 6.67524 3.877 6.21024 5.846C5.01624 6.211 4.14724 6.482 4.05024 6.52C3.37524 6.733 3.35624 6.752 3.27824 7.39C3.20324 7.852 1.44824 21.453 1.44824 21.453L15.0092 24L15.9362 2.834Z" fill="black"/>
<path d="M33.4219 15.9609C33.5312 15.3411 33.2266 14.8672 32.5078 14.5391L31 13.9375C29.25 13.1562 28.4193 12.0807 28.5078 10.7109C28.5443 10.0755 28.7526 9.51302 29.1328 9.02344C29.513 8.53385 30.0469 8.15104 30.7344 7.875C31.4219 7.59375 32.1641 7.45833 32.9609 7.46875C34.0599 7.48958 34.9479 7.81771 35.625 8.45312C36.3021 9.08333 36.6354 9.92969 36.625 10.9922H34.3438C34.3698 10.4766 34.2552 10.0755 34 9.78906C33.75 9.5026 33.3594 9.35417 32.8281 9.34375C32.3073 9.33333 31.8542 9.45312 31.4688 9.70312C31.0833 9.94792 30.8542 10.2865 30.7812 10.7188C30.6823 11.2865 31.0625 11.737 31.9219 12.0703L32.9531 12.4609L33.5469 12.7344C35.0833 13.4948 35.8021 14.5625 35.7031 15.9375C35.6562 16.6094 35.4401 17.1901 35.0547 17.6797C34.6745 18.1641 34.1536 18.5365 33.4922 18.7969C32.8359 19.0573 32.112 19.1797 31.3203 19.1641C30.513 19.1484 29.7943 18.9792 29.1641 18.6562C28.5339 18.3333 28.0547 17.8776 27.7266 17.2891C27.4193 16.7422 27.276 16.1172 27.2969 15.4141L29.5859 15.4219C29.513 16.6562 30.1198 17.2839 31.4062 17.3047C31.9635 17.3047 32.4219 17.1823 32.7812 16.9375C33.1406 16.6927 33.3542 16.3672 33.4219 15.9609ZM40.0078 11.4844C40.6693 10.7448 41.4323 10.3802 42.2969 10.3906C43.1354 10.4115 43.75 10.7135 44.1406 11.2969C44.5365 11.875 44.6849 12.6667 44.5859 13.6719L43.6953 19H41.4922L42.3906 13.6484C42.4167 13.4453 42.4219 13.2578 42.4062 13.0859C42.3542 12.5234 42.026 12.2344 41.4219 12.2188C40.8281 12.1979 40.3073 12.4531 39.8594 12.9844L38.7969 19H36.5938L38.6719 7H40.8828L40.0078 11.4844ZM50.25 10.3906C50.9948 10.401 51.6354 10.5938 52.1719 10.9688C52.7135 11.3385 53.1094 11.8516 53.3594 12.5078C53.6146 13.1589 53.7057 13.8828 53.6328 14.6797C53.513 16.0234 53.0443 17.112 52.2266 17.9453C51.4141 18.7734 50.4089 19.1771 49.2109 19.1562C48.4766 19.1458 47.8411 18.9583 47.3047 18.5938C46.7682 18.224 46.3724 17.7135 46.1172 17.0625C45.862 16.4115 45.7708 15.6927 45.8438 14.9062C45.9792 13.5104 46.4531 12.401 47.2656 11.5781C48.0781 10.7552 49.0729 10.3594 50.25 10.3906ZM48.0234 15.7109C48.0339 16.2109 48.151 16.6068 48.375 16.8984C48.599 17.1849 48.9141 17.3333 49.3203 17.3438C49.9974 17.3646 50.5286 17.0547 50.9141 16.4141C51.2995 15.7682 51.4792 14.9219 51.4531 13.875C51.4323 13.375 51.3099 12.9766 51.0859 12.6797C50.8672 12.3776 50.5521 12.2214 50.1406 12.2109C49.4844 12.1901 48.9583 12.5 48.5625 13.1406C48.1719 13.776 47.9922 14.6328 48.0234 15.7109ZM62.3906 14.7969C62.2812 15.6823 62.0495 16.4688 61.6953 17.1562C61.3411 17.8438 60.901 18.3542 60.375 18.6875C59.849 19.0208 59.2656 19.1797 58.625 19.1641C57.8073 19.1432 57.1615 18.8385 56.6875 18.25L55.9141 22.25H53.7109L55.7344 10.5469L57.7656 10.5391L57.6172 11.3906C58.2266 10.7031 58.9453 10.3698 59.7734 10.3906C60.6016 10.4115 61.2448 10.7135 61.7031 11.2969C62.1615 11.875 62.4062 12.6615 62.4375 13.6562C62.4479 13.9792 62.4323 14.3594 62.3906 14.7969ZM60.2031 14.6328L60.25 13.8828C60.2604 13.3776 60.1667 12.9766 59.9688 12.6797C59.776 12.3828 59.4922 12.2292 59.1172 12.2188C58.4766 12.1979 57.9479 12.4688 57.5312 13.0312L56.8984 16.5156C57.0911 17.0417 57.5052 17.3151 58.1406 17.3359C58.6719 17.3516 59.1146 17.1458 59.4688 16.7188C59.8229 16.2917 60.0677 15.5964 60.2031 14.6328ZM65.4141 19H63.1953L64.6641 10.5469H66.8828L65.4141 19ZM64.9219 8.39844C64.9115 8.04948 65.026 7.76042 65.2656 7.53125C65.5052 7.30208 65.7943 7.1875 66.1328 7.1875C66.4661 7.17708 66.7552 7.27865 67 7.49219C67.2448 7.70573 67.3724 7.98177 67.3828 8.32031C67.3932 8.64323 67.2839 8.92448 67.0547 9.16406C66.8307 9.40365 66.5365 9.52865 66.1719 9.53906C65.8438 9.54948 65.5547 9.45052 65.3047 9.24219C65.0599 9.03385 64.9323 8.7526 64.9219 8.39844ZM67.8828 19L69.0625 12.2031H67.8438L68.1328 10.5469L69.3516 10.5391L69.4609 9.69531C69.5964 8.79427 69.9635 8.08854 70.5625 7.57812C71.1615 7.0625 71.9245 6.8099 72.8516 6.82031C73.1693 6.83073 73.5677 6.88542 74.0469 6.98438L73.8516 8.74219C73.6016 8.67969 73.3854 8.64844 73.2031 8.64844C72.8125 8.64323 72.4766 8.74219 72.1953 8.94531C71.9193 9.14844 71.7474 9.45312 71.6797 9.85938L71.5625 10.5469H73.1953L72.9062 12.2031H71.2812L70.1016 19H67.8828ZM76.5156 15.7812L78.9297 10.5469H81.3828L76.4375 20.2734C76.0833 21.0182 75.6667 21.5651 75.1875 21.9141C74.7135 22.263 74.1641 22.4375 73.5391 22.4375C73.2943 22.4375 72.9401 22.3828 72.4766 22.2734L72.6406 20.5547L72.9453 20.5703C73.6641 20.5911 74.1901 20.3281 74.5234 19.7812L75.0078 18.8828L73.625 10.5469H75.9062L76.5156 15.7812Z" fill="black"/>
</svg>
