<?xml version="1.0" ?><svg height="64" viewBox="0 0 64 64" width="64" xmlns="http://www.w3.org/2000/svg"><defs><style>.cls-1{fill:none;stroke:#000;stroke-linejoin:round;stroke-width:2px;}</style></defs><title/><g data-name="4-Online Communication" id="_4-Online_Communication"><rect class="cls-1" height="62" rx="2" ry="2" width="62" x="1" y="1"/><line class="cls-1" x1="1" x2="63" y1="9" y2="9"/><line class="cls-1" x1="4" x2="6" y1="5" y2="5"/><line class="cls-1" x1="8" x2="10" y1="5" y2="5"/><line class="cls-1" x1="58" x2="60" y1="5" y2="5"/><path class="cls-1" d="M50,34h2a2,2,0,0,0,2-2V18a2,2,0,0,0-2-2H12a2,2,0,0,0-2,2V32a2,2,0,0,0,2,2h3l4,4,4-4H40"/><path class="cls-1" d="M14,38H12a2,2,0,0,0-2,2V54a2,2,0,0,0,2,2H52a2,2,0,0,0,2-2V40a2,2,0,0,0-2-2H49l-4-4-4,4H24"/><rect class="cls-1" height="4" width="34" x="15" y="21"/><line class="cls-1" x1="14" x2="36" y1="29" y2="29"/><line class="cls-1" x1="44" x2="42" y1="29" y2="29"/><line class="cls-1" x1="40" x2="38" y1="29" y2="29"/><rect class="cls-1" height="4" transform="translate(64 98) rotate(180)" width="34" x="15" y="47"/><line class="cls-1" x1="50" x2="28" y1="43" y2="43"/><line class="cls-1" x1="20" x2="22" y1="43" y2="43"/><line class="cls-1" x1="24" x2="26" y1="43" y2="43"/><line class="cls-1" x1="4" x2="6" y1="13" y2="13"/><line class="cls-1" x1="58" x2="60" y1="13" y2="13"/><line class="cls-1" x1="58" x2="60" y1="59" y2="59"/><line class="cls-1" x1="4" x2="6" y1="59" y2="59"/></g></svg>