<?xml version="1.0" ?><svg height="64" viewBox="0 0 64 64" width="64" xmlns="http://www.w3.org/2000/svg"><defs><style>.cls-1{fill:none;stroke:#000;stroke-linejoin:round;stroke-width:2px;}</style></defs><title/><g data-name="8-Online Store" id="_8-Online_Store"><line class="cls-1" x1="1" x2="63" y1="9" y2="9"/><line class="cls-1" x1="4" x2="6" y1="5" y2="5"/><line class="cls-1" x1="8" x2="10" y1="5" y2="5"/><line class="cls-1" x1="58" x2="60" y1="5" y2="5"/><path class="cls-1" d="M61,1H3A2,2,0,0,0,1,3V17a1.959,1.959,0,0,0,2,2H4v5a2,2,0,0,0,2,2h4a2,2,0,0,0,2-2V19h4v5a2,2,0,0,0,2,2h4a2,2,0,0,0,2-2V19h4v5a2,2,0,0,0,2,2h4a2,2,0,0,0,2-2V19h4v5a2,2,0,0,0,2,2h4a2,2,0,0,0,2-2V19h4v5a2,2,0,0,0,2,2h4a2,2,0,0,0,2-2V19h1a1.959,1.959,0,0,0,2-2V3A2,2,0,0,0,61,1Z"/><line class="cls-1" x1="8" x2="12" y1="19" y2="19"/><line class="cls-1" x1="20" x2="24" y1="19" y2="19"/><line class="cls-1" x1="32" x2="36" y1="19" y2="19"/><line class="cls-1" x1="44" x2="48" y1="19" y2="19"/><line class="cls-1" x1="56" x2="60" y1="19" y2="19"/><line class="cls-1" x1="5" x2="59" y1="14" y2="14"/><polyline class="cls-1" points="6 26 6 59 58 59 58 26"/><path class="cls-1" d="M61,63V60a1,1,0,0,0-1-1H4a1,1,0,0,0-1,1v3"/><line class="cls-1" x2="64" y1="63" y2="63"/><rect class="cls-1" height="4" width="28" x="18" y="32"/><line class="cls-1" x1="20" x2="20" y1="36" y2="59"/><line class="cls-1" x1="44" x2="44" y1="36" y2="59"/><line class="cls-1" x1="15" x2="49" y1="32" y2="32"/><line class="cls-1" x1="32" x2="32" y1="36" y2="59"/><line class="cls-1" x1="27" x2="29" y1="47" y2="47"/><line class="cls-1" x1="35" x2="37" y1="47" y2="47"/><line class="cls-1" x1="6" x2="17" y1="54" y2="54"/><line class="cls-1" x1="47" x2="58" y1="54" y2="54"/><rect class="cls-1" height="10" width="6" x="10" y="40"/><rect class="cls-1" height="10" width="6" x="48" y="40"/><line class="cls-1" x1="9" x2="11" y1="30" y2="30"/><line class="cls-1" x1="53" x2="55" y1="30" y2="30"/></g></svg>